{
 "cells": [
  {
   "cell_type": "code",
   "execution_count": 1,
   "metadata": {},
   "outputs": [
    {
     "name": "stdout",
     "output_type": "stream",
     "text": [
      "ffmpeg version 6.1.1 Copyright (c) 2000-2023 the FFmpeg developers\n",
      "  built with gcc 11.2.0 (Anaconda gcc)\n",
      "  configuration: --prefix=/croot/ffmpeg_1722024521393/_h_env_placehold_placehold_placehold_placehold_placehold_placehold_placehold_placehold_placehold_placehold_placehold_placehold_placehold_placehold_placehold_placehold_placehold_placehold_placehold_placehold_placehold_placehold_ --cc=/croot/ffmpeg_1722024521393/_build_env/bin/x86_64-conda-linux-gnu-cc --ar=/croot/ffmpeg_1722024521393/_build_env/bin/x86_64-conda-linux-gnu-ar --nm=/croot/ffmpeg_1722024521393/_build_env/bin/x86_64-conda-linux-gnu-nm --ranlib=/croot/ffmpeg_1722024521393/_build_env/bin/x86_64-conda-linux-gnu-ranlib --strip=/croot/ffmpeg_1722024521393/_build_env/bin/x86_64-conda-linux-gnu-strip --disable-doc --enable-swresample --enable-swscale --enable-openssl --enable-libxml2 --enable-libtheora --enable-demuxer=dash --enable-postproc --enable-hardcoded-tables --enable-libfreetype --enable-libharfbuzz --enable-libfontconfig --enable-libdav1d --enable-zlib --enable-libaom --enable-pic --enable-shared --disable-static --disable-gpl --enable-version3 --disable-sdl2 --enable-libopenh264 --enable-libopus --enable-libmp3lame --enable-libopenjpeg --enable-libvorbis --enable-pthreads --enable-libtesseract --enable-libvpx\n",
      "  libavutil      58. 29.100 / 58. 29.100\n",
      "  libavcodec     60. 31.102 / 60. 31.102\n",
      "  libavformat    60. 16.100 / 60. 16.100\n",
      "  libavdevice    60.  3.100 / 60.  3.100\n",
      "  libavfilter     9. 12.100 /  9. 12.100\n",
      "  libswscale      7.  5.100 /  7.  5.100\n",
      "  libswresample   4. 12.100 /  4. 12.100\n",
      "Input #0, mov,mp4,m4a,3gp,3g2,mj2, from '/home/thiendc/projects/video_summarization/data/sample_tv360/video_chunk/chunk_2.mp4':\n",
      "  Metadata:\n",
      "    major_brand     : isom\n",
      "    minor_version   : 512\n",
      "    compatible_brands: isomiso2avc1mp41\n",
      "    encoder         : Lavf60.16.100\n",
      "  Duration: 00:01:21.01, start: 0.006009, bitrate: 657 kb/s\n",
      "  Stream #0:0[0x1](und): Video: h264 (Main) (avc1 / 0x31637661), yuv420p(tv, bt709, progressive), 640x360 [SAR 1:1 DAR 16:9], 565 kb/s, 30 fps, 30 tbr, 15360 tbn (default)\n",
      "    Metadata:\n",
      "      handler_name    : ISO Media file produced by Google Inc.\n",
      "      vendor_id       : [0][0][0][0]\n",
      "  Stream #0:1[0x2](und): Audio: aac (LC) (mp4a / 0x6134706D), 44100 Hz, stereo, fltp, 95 kb/s (default)\n",
      "    Metadata:\n",
      "      handler_name    : ISO Media file produced by Google Inc.\n",
      "      vendor_id       : [0][0][0][0]\n",
      "Stream mapping:\n",
      "  Stream #0:0 -> #0:0 (h264 (native) -> mpeg4 (native))\n",
      "Press [q] to stop, [?] for help\n",
      "Output #0, mp4, to 'output_video.mp4':\n",
      "  Metadata:\n",
      "    major_brand     : isom\n",
      "    minor_version   : 512\n",
      "    compatible_brands: isomiso2avc1mp41\n",
      "    encoder         : Lavf60.16.100\n",
      "  Stream #0:0(und): Video: mpeg4 (mp4v / 0x7634706D), yuv420p(tv, bt709, progressive), 640x360 [SAR 1:1 DAR 16:9], q=2-31, 200 kb/s, 30 fps, 15360 tbn (default)\n",
      "    Metadata:\n",
      "      handler_name    : ISO Media file produced by Google Inc.\n",
      "      vendor_id       : [0][0][0][0]\n",
      "      encoder         : Lavc60.31.102 mpeg4\n",
      "    Side data:\n",
      "      cpb: bitrate max/min/avg: 0/0/200000 buffer size: 0 vbv_delay: N/A\n",
      "\u001b[1;35m[out#0/mp4 @ 0x16cfc40] \u001b[0mvideo:3447kB audio:0kB subtitle:0kB other streams:0kB global headers:0kB muxing overhead: 0.326844%\n",
      "frame= 2430 fps=1425 q=31.0 Lsize=    3459kB time=00:01:20.96 bitrate= 349.9kbits/s dup=45 drop=0 speed=47.5x    \n",
      "ffmpeg version 6.1.1 Copyright (c) 2000-2023 the FFmpeg developers\n",
      "  built with gcc 11.2.0 (Anaconda gcc)\n",
      "  configuration: --prefix=/croot/ffmpeg_1722024521393/_h_env_placehold_placehold_placehold_placehold_placehold_placehold_placehold_placehold_placehold_placehold_placehold_placehold_placehold_placehold_placehold_placehold_placehold_placehold_placehold_placehold_placehold_placehold_ --cc=/croot/ffmpeg_1722024521393/_build_env/bin/x86_64-conda-linux-gnu-cc --ar=/croot/ffmpeg_1722024521393/_build_env/bin/x86_64-conda-linux-gnu-ar --nm=/croot/ffmpeg_1722024521393/_build_env/bin/x86_64-conda-linux-gnu-nm --ranlib=/croot/ffmpeg_1722024521393/_build_env/bin/x86_64-conda-linux-gnu-ranlib --strip=/croot/ffmpeg_1722024521393/_build_env/bin/x86_64-conda-linux-gnu-strip --disable-doc --enable-swresample --enable-swscale --enable-openssl --enable-libxml2 --enable-libtheora --enable-demuxer=dash --enable-postproc --enable-hardcoded-tables --enable-libfreetype --enable-libharfbuzz --enable-libfontconfig --enable-libdav1d --enable-zlib --enable-libaom --enable-pic --enable-shared --disable-static --disable-gpl --enable-version3 --disable-sdl2 --enable-libopenh264 --enable-libopus --enable-libmp3lame --enable-libopenjpeg --enable-libvorbis --enable-pthreads --enable-libtesseract --enable-libvpx\n",
      "  libavutil      58. 29.100 / 58. 29.100\n",
      "  libavcodec     60. 31.102 / 60. 31.102\n",
      "  libavformat    60. 16.100 / 60. 16.100\n",
      "  libavdevice    60.  3.100 / 60.  3.100\n",
      "  libavfilter     9. 12.100 /  9. 12.100\n",
      "  libswscale      7.  5.100 /  7.  5.100\n",
      "  libswresample   4. 12.100 /  4. 12.100\n",
      "Input #0, mov,mp4,m4a,3gp,3g2,mj2, from '/home/thiendc/projects/video_summarization/data/sample_tv360/video_chunk/chunk_2.mp4':\n",
      "  Metadata:\n",
      "    major_brand     : isom\n",
      "    minor_version   : 512\n",
      "    compatible_brands: isomiso2avc1mp41\n",
      "    encoder         : Lavf60.16.100\n",
      "  Duration: 00:01:21.01, start: 0.006009, bitrate: 657 kb/s\n",
      "  Stream #0:0[0x1](und): Video: h264 (Main) (avc1 / 0x31637661), yuv420p(tv, bt709, progressive), 640x360 [SAR 1:1 DAR 16:9], 565 kb/s, 30 fps, 30 tbr, 15360 tbn (default)\n",
      "    Metadata:\n",
      "      handler_name    : ISO Media file produced by Google Inc.\n",
      "      vendor_id       : [0][0][0][0]\n",
      "  Stream #0:1[0x2](und): Audio: aac (LC) (mp4a / 0x6134706D), 44100 Hz, stereo, fltp, 95 kb/s (default)\n",
      "    Metadata:\n",
      "      handler_name    : ISO Media file produced by Google Inc.\n",
      "      vendor_id       : [0][0][0][0]\n",
      "Stream mapping:\n",
      "  Stream #0:1 -> #0:0 (aac (native) -> pcm_s16le (native))\n",
      "Press [q] to stop, [?] for help\n",
      "Output #0, wav, to 'output_audio.wav':\n",
      "  Metadata:\n",
      "    major_brand     : isom\n",
      "    minor_version   : 512\n",
      "    compatible_brands: isomiso2avc1mp41\n",
      "    ISFT            : Lavf60.16.100\n",
      "  Stream #0:0(und): Audio: pcm_s16le ([1][0][0][0] / 0x0001), 44100 Hz, stereo, s16, 1411 kb/s (default)\n",
      "    Metadata:\n",
      "      handler_name    : ISO Media file produced by Google Inc.\n",
      "      vendor_id       : [0][0][0][0]\n",
      "      encoder         : Lavc60.31.102 pcm_s16le\n",
      "\u001b[1;35m[out#0/wav @ 0xe184c0] \u001b[0mvideo:0kB audio:13956kB subtitle:0kB other streams:0kB global headers:0kB muxing overhead: 0.000546%\n",
      "size=   13956kB time=00:01:20.99 bitrate=1411.6kbits/s speed= 437x    \n"
     ]
    }
   ],
   "source": [
    "!ffmpeg -i \"/home/thiendc/projects/video_summarization/data/sample_tv360/video_chunk/chunk_2.mp4\" -y -an output_video.mp4\n",
    "!ffmpeg -i \"/home/thiendc/projects/video_summarization/data/sample_tv360/video_chunk/chunk_2.mp4\" -y -vn -acodec pcm_s16le -ar 44100 -ac 2 output_audio.wav\n",
    "\n"
   ]
  }
 ],
 "metadata": {
  "kernelspec": {
   "display_name": "Python 3",
   "language": "python",
   "name": "python3"
  },
  "language_info": {
   "codemirror_mode": {
    "name": "ipython",
    "version": 3
   },
   "file_extension": ".py",
   "mimetype": "text/x-python",
   "name": "python",
   "nbconvert_exporter": "python",
   "pygments_lexer": "ipython3",
   "version": "3.10.15"
  }
 },
 "nbformat": 4,
 "nbformat_minor": 2
}
